<svg width="80" height="80" viewBox="0 0 80 80" fill="none" xmlns="http://www.w3.org/2000/svg">
<path d="M40 80C62.0914 80 80 62.0914 80 40C80 17.9086 62.0914 0 40 0C17.9086 0 0 17.9086 0 40C0 62.0914 17.9086 80 40 80Z" fill="#0263DE" fill-opacity="0.2"/>
<path d="M40 52C46.6274 52 52 46.6274 52 40C52 33.3726 46.6274 28 40 28C33.3726 28 28 33.3726 28 40C28 46.6274 33.3726 52 40 52Z" fill="white"/>
<path d="M40 50C45.5228 50 50 45.5228 50 40C50 34.4772 45.5228 30 40 30C34.4772 30 30 34.4772 30 40C30 45.5228 34.4772 50 40 50Z" fill="#0263D1"/>
<path fill-rule="evenodd" clip-rule="evenodd" d="M45 28L40 24L35 28C36.5782 27.5413 38.2578 27.294 40 27.294C41.7422 27.294 43.4218 27.5413 45 28Z" fill="#0263D1"/>
</svg>
