<svg width="30" height="31" viewBox="0 0 30 31" fill="none" xmlns="http://www.w3.org/2000/svg">
<circle cx="15" cy="15.6787" r="15" fill="#83A2C5"/>
<path d="M18.551 18.7685C18.7986 18.7685 19.0001 18.9728 19.0003 19.2235C19.0003 19.4748 18.7987 19.6786 18.551 19.6786H16.013C15.7655 19.6784 15.5647 19.4747 15.5647 19.2235C15.5648 18.9729 15.7656 18.7687 16.013 18.7685H18.551ZM15.1077 12.1044C15.5133 11.5836 16.2206 11.5353 16.7913 11.9892L17.4466 12.5097C17.7154 12.7199 17.895 12.9975 17.9563 13.289C18.027 13.6093 17.9514 13.924 17.7395 14.1962L13.8343 19.247C13.655 19.4762 13.3906 19.6045 13.1077 19.6093L11.551 19.6288C11.4663 19.6287 11.3961 19.5713 11.3772 19.4901L11.0227 17.9569C10.9614 17.6751 11.0233 17.3836 11.2024 17.1591L13.971 13.5751C14.0182 13.5181 14.103 13.5092 14.1594 13.5517L15.3245 14.4784C15.3999 14.5404 15.5033 14.5737 15.6116 14.5595C15.8426 14.5308 15.9983 14.321 15.9749 14.0966C15.9607 13.982 15.9047 13.886 15.8294 13.8144C15.8061 13.7955 14.7243 12.9286 14.6975 12.9071C14.6268 12.8498 14.6126 12.7439 14.6692 12.6728L15.1077 12.1044Z" fill="#032D5C"/>
</svg>
