<svg xmlns="http://www.w3.org/2000/svg" viewBox="0 0 413.38 105.77">
  <path d="M105.11,61.91a3.5,3.5,0,1,0-3.5,3.5A3.5,3.5,0,0,0,105.11,61.91Z" transform="translate(0.07 0.02)" fill="#204c83"/>
  <path d="M21.26,88.54a15,15,0,1,1,12.07-24l4.39-4.43A21.26,21.26,0,1,0,34.57,90c.4-.32.78-.65,1.15-1l-4.4-4.4A15.05,15.05,0,0,1,21.26,88.54Z" transform="translate(0.07 0.02)" fill="#204c83"/>
  <path d="M121.63,67.45h-.17a14,14,0,0,0-5.11,1v-.23h-6.21V92.55h6v-17c3.09-2.89,7.56-3.29,10-1,1.27,1.23,1.62,3.44,1.61,6v12h6V80.17c0-4.21-1.14-7.48-3.4-9.71A11.69,11.69,0,0,0,121.63,67.45Z" transform="translate(0.07 0.02)" fill="#204c83"/>
  <path d="M56.48,69.91a12.73,12.73,0,1,0,0,21.4v1.23h6.24V68.23H56.48ZM49.62,87.12a6.52,6.52,0,1,1,6.51-6.53h0A6.54,6.54,0,0,1,49.62,87.12Z" transform="translate(0.07 0.02)" fill="#204c83"/>
  <path d="M157.18,69.66a12.87,12.87,0,0,0-6.9-2,13,13,0,1,0,6.9,24v1a6.79,6.79,0,0,1-13.57,0H137.4a13,13,0,0,0,26,.17h0V68.23h-6.21Zm-6.9,17.77a6.79,6.79,0,1,1,6.79-6.79h0a6.79,6.79,0,0,1-6.79,6.78Z" transform="translate(0.07 0.02)" fill="#204c83"/>
  <rect x="87.21" y="55.74" width="6.21" height="36.82" fill="#204c83"/>
  <rect x="98.58" y="68.24" width="6.21" height="24.31" fill="#204c83"/>
  <polygon points="177.34 59.71 171.13 59.71 171.13 68.02 167.52 68.02 167.52 74.23 171.13 74.23 171.13 92.57 177.34 92.57 177.34 74.23 180.95 74.23 180.95 68.02 177.34 68.02 177.34 59.71" fill="#204c83"/>
  <rect x="68" y="68.24" width="6.21" height="24.32" fill="#204c83"/>
  <circle cx="79.53" cy="72.49" r="4.72" fill="#204c83"/>
  <path d="M195.6,67.54a13,13,0,1,0,13,13A13,13,0,0,0,195.6,67.54Zm0,19.78a6.79,6.79,0,1,1,6.79-6.79h0A6.8,6.8,0,0,1,195.6,87.32Z" transform="translate(0.07 0.02)" fill="#204c83"/>
  <path d="M232.08,70.55c-3.13-3.09-7.23-3-8.57-3h-.17a13.56,13.56,0,0,0-5.11,1v-.33H212V92.55H218V75.67c3.09-2.89,7.56-3.3,10-1,1.26,1.22,1.62,3.44,1.61,6V92.53h5.95V80.26C235.48,76,234.33,72.77,232.08,70.55Z" transform="translate(0.07 0.02)" fill="#204c83"/>
  <rect x="254.14" y="47.05" width="0.24" height="58.58" fill="#5971a8"/>
  <path d="M128.27,0l-4.91,31c1.87-.08,3.75-.13,5.64-.13,1.69,0,3.36,0,5,.11L129.58,0Z" transform="translate(0.07 0.02)" fill="#5971a8"/>
  <path d="M64.14,15,74,44.13c2.63-1.35,5.33-2.6,8.07-3.76l-16.72-26Z" transform="translate(0.07 0.02)" fill="#5971a8"/>
  <path d="M98.18,16.75l1.54,17.73q3.25-.81,6.57-1.44L99.44,16.43Z" transform="translate(0.07 0.02)" fill="#5971a8"/>
  <path d="M44.13,42.91l9.26,14.56q2.32-1.86,4.83-3.65L45.15,42.08Z" transform="translate(0.07 0.02)" fill="#5971a8"/>
  <path d="M175.12,40q4.41,1.83,8.63,4L194.14,15.1,193,14.49Z" transform="translate(0.07 0.02)" fill="#5971a8"/>
  <path d="M199.81,53.84c1.65,1.2,3.26,2.44,4.85,3.71l9.21-14.73-1-.86Z" transform="translate(0.07 0.02)" fill="#5971a8"/>
  <path d="M151.51,33c2.23.42,4.45.9,6.64,1.45l1.62-17.73-1.3-.32Z" transform="translate(0.07 0.02)" fill="#5971a8"/>
  <path d="M277.07,71.46c-3.66,0-6.17-2.94-6.17-6.6s2.51-6.62,6.17-6.62a6.43,6.43,0,0,1,4.57,1.91l1.08-1.06a7.75,7.75,0,0,0-5.63-2.37c-4.49,0-7.68,3.64-7.68,8.14S272.6,73,277.09,73a7.81,7.81,0,0,0,5.63-2.37l-1-1.08A6.4,6.4,0,0,1,277.07,71.46Z" transform="translate(0.07 0.02)" fill="#5971a8"/>
  <path d="M290.38,73A5.46,5.46,0,0,0,296,67.67v-.32a5.61,5.61,0,0,0-11.22,0A5.46,5.46,0,0,0,290.06,73Zm0-9.68a3.93,3.93,0,0,1,4.09,3.77v.23a4.09,4.09,0,1,1-8.18,0h0a3.93,3.93,0,0,1,3.86-4Z" transform="translate(0.07 0.02)" fill="#5971a8"/>
  <path d="M312,61.78a4.21,4.21,0,0,0-4,2.35,3.74,3.74,0,0,0-3.73-2.35,4.29,4.29,0,0,0-3.56,2V62h-1.54V72.75h1.53V66.91a3.35,3.35,0,0,1,3.09-3.59h.47c1.66,0,2.6,1.22,2.6,3.2v6.25h1.54V66.91a3.35,3.35,0,0,1,3.09-3.59H312c1.65,0,2.6,1.22,2.6,3.2v6.25h1.54V66.5C316.18,63.58,314.64,61.78,312,61.78Z" transform="translate(0.07 0.02)" fill="#5971a8"/>
  <path d="M332.78,61.78a4.21,4.21,0,0,0-4,2.35,3.73,3.73,0,0,0-3.72-2.35,4.28,4.28,0,0,0-3.57,2V62H320V72.75h1.54V66.91a3.35,3.35,0,0,1,3.09-3.59h.48c1.66,0,2.6,1.22,2.6,3.2v6.25h1.54V66.91a3.35,3.35,0,0,1,3.09-3.59h.47c1.66,0,2.6,1.22,2.6,3.2v6.25h1.54V66.5C337,63.58,335.4,61.78,332.78,61.78Z" transform="translate(0.07 0.02)" fill="#5971a8"/>
  <path d="M348.3,71v1.77h1.54V62H348.3v5.9a3.34,3.34,0,0,1-3.11,3.55,3.69,3.69,0,0,1-.47,0c-1.66,0-2.6-1.22-2.6-3.19V62h-1.54v6.26c0,2.92,1.52,4.71,4.14,4.71A4,4,0,0,0,348.3,71Z" transform="translate(0.07 0.02)" fill="#5971a8"/>
  <path d="M361.5,66.5v6.25H363V66.5c0-2.92-1.51-4.72-4.13-4.72a4,4,0,0,0-3.57,2V62H353.8V72.75h1.54V66.91a3.35,3.35,0,0,1,3.09-3.59h.48C360.56,63.3,361.5,64.52,361.5,66.5Z" transform="translate(0.07 0.02)" fill="#5971a8"/>
  <rect x="366.93" y="62.03" width="1.52" height="10.74" fill="#5971a8"/>
  <path d="M367.64,59.11a1.1,1.1,0,0,0,1-1.17,1.1,1.1,0,1,0-1.06,1.17Z" transform="translate(0.07 0.02)" fill="#5971a8"/>
  <polygon points="374.66 72.77 374.66 63.41 376.94 63.41 376.94 62.03 374.66 62.03 374.66 58 373.12 58 373.12 62.03 371.19 62.03 371.19 63.41 373.12 63.41 373.12 72.77 374.66 72.77" fill="#5971a8"/>
  <polygon points="380.68 77.97 382.27 77.97 388.94 62.03 387.31 62.03 383.65 70.77 380.01 62.03 378.41 62.03 382.82 72.75 380.68 77.97" fill="#5971a8"/>
  <polygon points="280.73 88.14 272.03 88.14 272.03 80.88 270.51 80.88 270.51 96.72 272.03 96.72 272.03 89.57 280.73 89.57 280.73 96.72 282.24 96.72 282.24 80.88 280.73 80.88 280.73 88.14" fill="#5971a8"/>
  <path d="M291,85.73a5.27,5.27,0,0,0-5.43,5.09c0,.16,0,.32,0,.48a5.32,5.32,0,0,0,5,5.6h.4a5.22,5.22,0,0,0,4.9-3c-.48-.12-1.08-.23-1.54-.35A3.92,3.92,0,0,1,287.16,92h9.11v-.71C296.29,87.91,294.08,85.73,291,85.73Zm-3.86,4.86A3.77,3.77,0,0,1,291,87.25a3.63,3.63,0,0,1,3.7,3.34Z" transform="translate(0.07 0.02)" fill="#5971a8"/>
  <path d="M308.18,87.73a4.69,4.69,0,0,0-4-2,5.31,5.31,0,0,0-5.49,5.12,3.38,3.38,0,0,0,0,.45,5.38,5.38,0,0,0,5.12,5.61h.32a4.73,4.73,0,0,0,4-2.07v1.84h1.59V86h-1.54Zm-4,7.66a3.91,3.91,0,0,1-4-3.81,2.61,2.61,0,0,1,0-.28,3.82,3.82,0,0,1,3.63-4h.37a4,4,0,0,1,4,4,3.88,3.88,0,0,1-3.64,4.09,2.81,2.81,0,0,1-.41,0Z" transform="translate(0.07 0.02)" fill="#5971a8"/>
  <rect x="313.75" y="80.16" width="1.52" height="16.56" fill="#5971a8"/>
  <polygon points="321.47 81.96 319.93 81.96 319.93 85.98 318 85.98 318 87.36 319.93 87.36 319.93 96.72 321.47 96.72 321.47 87.36 323.75 87.36 323.75 85.98 321.47 85.98 321.47 81.96" fill="#5971a8"/>
  <path d="M331.56,85.73a4,4,0,0,0-3.56,2V80.14h-1.54V96.7H328V90.84a3.35,3.35,0,0,1,3.09-3.59,3.69,3.69,0,0,1,.47,0c1.66,0,2.6,1.22,2.6,3.2V96.7h1.56V90.45C335.72,87.53,334.19,85.73,331.56,85.73Z" transform="translate(0.07 0.02)" fill="#5971a8"/>
  <path d="M352.93,95.41c-3.66,0-6.17-2.94-6.17-6.6s2.51-6.62,6.17-6.62a6.43,6.43,0,0,1,4.57,1.91L358.56,83a7.75,7.75,0,0,0-5.63-2.37c-4.49,0-7.68,3.64-7.68,8.14s3.19,8.1,7.68,8.1a7.8,7.8,0,0,0,5.65-2.37l-1.05-1.08A6.4,6.4,0,0,1,352.93,95.41Z" transform="translate(0.07 0.02)" fill="#5971a8"/>
  <path d="M366.06,85.73a5.28,5.28,0,0,0-5.44,5.1c0,.16,0,.31,0,.47a5.32,5.32,0,0,0,5,5.6h.41a5.21,5.21,0,0,0,4.89-3c-.48-.12-1.08-.23-1.54-.35A3.92,3.92,0,0,1,362.19,92h9.11v-.71C371.32,87.91,369.12,85.73,366.06,85.73Zm-3.87,4.86a3.77,3.77,0,0,1,3.87-3.34,3.63,3.63,0,0,1,3.7,3.34Z" transform="translate(0.07 0.02)" fill="#5971a8"/>
  <path d="M379.51,85.73a4,4,0,0,0-3.57,2V86H374.4V96.7h1.54V90.84A3.35,3.35,0,0,1,379,87.25a3.84,3.84,0,0,1,.48,0c1.65,0,2.6,1.22,2.6,3.2V96.7h1.54V90.45C383.72,87.53,382.13,85.73,379.51,85.73Z" transform="translate(0.07 0.02)" fill="#5971a8"/>
  <polygon points="389.79 81.96 388.25 81.96 388.25 85.98 386.32 85.98 386.32 87.36 388.25 87.36 388.25 96.72 389.79 96.72 389.79 87.36 392.07 87.36 392.07 85.98 389.79 85.98 389.79 81.96" fill="#5971a8"/>
  <path d="M396.32,88.4V86h-1.54V96.7h1.54v-4c0-2.85.89-5.43,3.08-5.43a4,4,0,0,1,1.56.37l.19-1.49a3.46,3.46,0,0,0-1.75-.42C397.83,85.73,396.84,86.56,396.32,88.4Z" transform="translate(0.07 0.02)" fill="#5971a8"/>
  <path d="M413.31,91.3c0-3.41-2.21-5.57-5.27-5.57a5.27,5.27,0,0,0-5.43,5.09c0,.16,0,.32,0,.48a5.32,5.32,0,0,0,5,5.6h.4a5.25,5.25,0,0,0,4.9-3c-.48-.12-1.08-.23-1.54-.35A3.92,3.92,0,0,1,404.18,92h9.11C413.31,91.8,413.31,91.53,413.31,91.3Zm-9.13-.71A3.77,3.77,0,0,1,408,87.25a3.63,3.63,0,0,1,3.68,3.34Z" transform="translate(0.07 0.02)" fill="#5971a8"/>
</svg>
