<svg width="17" height="18" viewBox="0 0 17 18" fill="none" xmlns="http://www.w3.org/2000/svg">
<path d="M16.6641 15.8359L13.4844 12.6563C14.5113 11.3456 15.0672 9.72752 15.0625 8.0625C15.0625 6.57914 14.6226 5.1291 13.7985 3.89573C12.9744 2.66236 11.8031 1.70106 10.4326 1.13341C9.06218 0.56575 7.55418 0.417225 6.09933 0.706614C4.64447 0.996003 3.3081 1.71031 2.2592 2.7592C1.21031 3.8081 0.496003 5.14447 0.206614 6.59933C-0.0827754 8.05418 0.0657496 9.56218 0.633407 10.9326C1.20106 12.3031 2.16236 13.4744 3.39573 14.2985C4.6291 15.1226 6.07914 15.5625 7.5625 15.5625C9.22752 15.5672 10.8456 15.0113 12.1563 13.9844L15.3359 17.1641C15.5129 17.3387 15.7514 17.4366 16 17.4366C16.2486 17.4366 16.4872 17.3387 16.6641 17.1641C16.7515 17.077 16.8208 16.9735 16.8681 16.8595C16.9154 16.7456 16.9398 16.6234 16.9398 16.5C16.9398 16.3766 16.9154 16.2544 16.8681 16.1405C16.8208 16.0265 16.7515 15.923 16.6641 15.8359ZM1.9375 8.0625C1.9375 6.94998 2.2674 5.86245 2.88549 4.93742C3.50357 4.01239 4.38207 3.29142 5.40991 2.86568C6.43774 2.43994 7.56874 2.32854 8.65989 2.54559C9.75103 2.76263 10.7533 3.29836 11.54 4.08503C12.3266 4.8717 12.8624 5.87398 13.0794 6.96512C13.2965 8.05626 13.1851 9.18726 12.7593 10.2151C12.3336 11.2429 11.6126 12.1214 10.6876 12.7395C9.76256 13.3576 8.67502 13.6875 7.5625 13.6875C6.0713 13.6854 4.64175 13.0921 3.58731 12.0377C2.53287 10.9833 1.93957 9.55371 1.9375 8.0625Z" fill="#7D7D7D"/>
</svg>
